# xmcd
# 
# Track frame offsets:
#     183
#     13308
#     24328
#     31980
#     47510
#     63785
#     73800
#     85618
#     96460
#     112095
#     119078
#     132663
#     140358
#     154560
# 
# Disc length: 2173
# 
# Revision: 0
# Processed by: cddbd v1.5.2PL0 Copyright (c) Steve Scherf et al.
# Submitted via: fre:ac v1.0.31
# 
DISCID=c2087b0e
DTITLE=Billie Holiday - Billie's Blues
DYEAR=0
DGENRE=Blues
TTITLE0=Bilie's Blues
TTITLE1=Lover Man
TTITLE2=Them There Eyes
TTITLE3=My Man
TTITLE4=I Cover the Waterfront
TTITLE5=Crazy He Calls Me
TTITLE6=Lover Come Back To Me
TTITLE7=Detour Ahead
TTITLE8=Strange Fruit
TTITLE9=Drive Me Crazy
TTITLE10=Ain't Nobody's Business If I Do
TTITLE11=All Of Me
TTITLE12=I Love You Porgy
TTITLE13=Miss Brown To You
EXTD=
EXTT0=
EXTT1=
EXTT2=
EXTT3=
EXTT4=
EXTT5=
EXTT6=
EXTT7=
EXTT8=
EXTT9=
EXTT10=
EXTT11=
EXTT12=
EXTT13=
PLAYORDER=
